<?xml version="1.0" standalone="no"?>
<!DOCTYPE svg PUBLIC "-//W3C//DTD SVG 20010904//EN"
 "http://www.w3.org/TR/2001/REC-SVG-20010904/DTD/svg10.dtd">
<svg version="1.0" xmlns="http://www.w3.org/2000/svg"
 width="1280.000000pt" height="1280.000000pt" viewBox="0 0 1280.000000 1280.000000"
 preserveAspectRatio="xMidYMid meet">

<g transform="translate(0.000000,1280.000000) scale(0.100000,-0.100000)"
fill="#000000" stroke="none">
<path d="M6052 11689 c-1435 -91 -2801 -788 -3726 -1901 -928 -1117 -1357
-2557 -1191 -3998 208 -1800 1333 -3378 2967 -4164 565 -272 1138 -433 1793
-502 229 -25 776 -25 1009 0 866 90 1638 357 2346 810 1123 718 1938 1835
2274 3116 124 471 169 832 170 1345 0 364 -11 525 -60 833 -267 1705 -1370
3191 -2926 3941 -833 402 -1737 579 -2656 520z m3700 -8349 c98 -19 227 -61
255 -83 8 -6 18 -4 28 7 9 9 22 16 28 16 14 0 119 -68 129 -84 4 -7 16 -5 33
4 26 14 28 13 82 -43 48 -50 57 -56 75 -46 16 9 23 8 29 -2 30 -53 32 -53 75
-2 22 26 57 72 78 101 21 28 40 52 43 52 3 0 1 -6 -4 -12 -5 -7 -42 -57 -82
-110 -40 -54 -78 -96 -84 -95 -7 1 -11 -6 -9 -15 2 -16 -13 -32 -33 -33 -5 -1
-9 -7 -7 -14 3 -17 -154 -196 -309 -351 -375 -375 -743 -645 -1229 -902 -174
-92 -555 -256 -567 -244 -3 2 6 7 18 11 12 4 37 14 56 21 l33 14 -27 41 -27
41 21 16 21 17 -23 48 c-35 71 -41 106 -19 121 15 12 16 20 6 72 -23 124 -23
123 2 140 23 14 24 21 25 117 1 141 48 348 83 368 33 18 57 51 98 132 24 48
47 87 51 87 4 0 12 14 19 30 7 17 15 30 19 30 4 0 14 13 24 28 25 43 129 145
205 202 37 27 72 53 77 58 135 110 344 197 522 217 40 4 73 15 95 30 37 27
101 32 190 15z m-1482 -1864 c0 -6 -123 -47 -127 -42 -2 2 22 13 54 24 62 22
73 24 73 18z"/>
</g>
</svg>
